<?xml version="1.0" encoding="UTF-8"?>
<svg id="Capa_2" data-name="Capa 2" xmlns="http://www.w3.org/2000/svg" viewBox="0 0 248 248">
  <defs>
    <style>
      .cls-1 {
        fill: none;
      }

      .cls-1, .cls-2 {
        stroke-width: 0px;
      }
    </style>
  </defs>
  <g id="Capa_1-2" data-name="Capa 1">
    <g>
      <g id="blu8u5.tif">
        <g>
          <path class="cls-2" d="m124.17,45.55c43.33.12,78.32,35.2,78.28,78.49-.04,43.4-35.27,78.53-78.63,78.4-43.41-.12-78.5-35.42-78.28-78.75.22-43.34,35.35-78.26,78.63-78.15ZM54.73,123.66c-.29,37.95,30.66,69.23,68.88,69.61,38.01.37,69.47-30.81,69.68-69.06.21-37.99-30.82-69.22-69-69.48-37.97-.25-69.25,30.75-69.55,68.93Z"/>
          <path class="cls-2" d="m123.54,124.21c8.93.29,15.49,3.51,19.28,11.13.67,1.34.98,3.46.37,4.67-.65,1.3-2.56,2.65-3.96,2.69-1.39.04-3.63-1.22-4.1-2.45-2.78-7.25-12.87-8.21-17.97-5.27-1.77,1.02-3.32,2.74-4.44,4.48-1.8,2.79-4.05,3.89-6.58,2.57-2.45-1.28-3.16-3.94-1.65-6.85,4.14-7.99,11.12-10.95,19.05-10.99Z"/>
          <path class="cls-2" d="m92.7,123.59c-6.97.04-12.75-5.53-12.77-12.3,0-2.83,1.61-4.74,4.19-4.94,2.59-.2,4.61,1.4,4.93,4.17.26,2.2,1.2,3.78,3.47,3.81,2.39.03,3.36-1.55,3.62-3.89.31-2.81,2.62-4.43,5.28-4.05,2.49.36,4.08,2.48,3.92,5.22-.4,6.72-5.91,11.94-12.64,11.98Z"/>
          <path class="cls-2" d="m155.76,123.42c-6.55,0-12.2-5.2-12.73-11.71-.22-2.72,1.34-4.91,3.8-5.32,2.68-.45,4.91,1.06,5.37,3.93.36,2.25,1.16,3.89,3.68,3.83,2.38-.06,3.13-1.73,3.47-3.82.45-2.77,2.48-4.28,5.09-3.97,2.45.29,4.03,2.19,4.02,4.86-.02,6.51-5.94,12.21-12.7,12.21Z"/>
        </g>
      </g>
      <rect class="cls-1" width="248" height="248"/>
    </g>
  </g>
</svg>