<?xml version="1.0" encoding="UTF-8"?>
<svg id="Capa_2" data-name="Capa 2" xmlns="http://www.w3.org/2000/svg" viewBox="0 0 105.92 105.92">
  <defs>
    <style>
      .cls-1 {
        fill: none;
      }

      .cls-1, .cls-2 {
        stroke-width: 0px;
      }

      .cls-2 {
        fill: #333;
      }
    </style>
  </defs>
  <g id="Capa_1-2" data-name="Capa 1">
    <g>
      <g id="C9KAvk.tif">
        <g>
          <path class="cls-2" d="m30.5,19.29h-9.39v1.17c0,4.63,0,9.26,0,13.89,0,.32.03.64-.02.95-.12.87-.62,1.43-1.51,1.5-.95.08-1.54-.42-1.78-1.32-.08-.3-.06-.63-.06-.95,0-4.88,0-9.76,0-14.63,0-2.75,1.27-4.01,4.03-4.01,3.29,0,6.58,0,9.86,0,1.7,0,2.23.53,2.23,2.2,0,1.7.01,3.39,0,5.09-.01,1.18-.67,1.92-1.66,1.93-.97,0-1.67-.75-1.7-1.91-.03-1.27,0-2.54,0-3.92Z"/>
          <path class="cls-2" d="m96,53.95c-.61.59-1.33.66-2.05.21-.32-.2-.59-.5-.86-.78-1.65-1.64-3.29-3.27-4.93-4.9,0,1.49,0,3.03,0,4.4,0,.21,0,.42,0,.63v33.76c0,2.74-1.3,4.05-4.01,4.06h-23.88c-1.47,0-1.87-.27-2.39-1.62-1.53-3.8-3-7.62-4.58-11.4-.48-1.15-.3-1.98.48-2.89,3.61-4.22,7.17-8.48,10.75-12.73.34-.4.66-.81,1.05-1.28-2.11-1.85-4.14-3.63-6.19-5.42-1.31-1.14-2.63-2.26-3.92-3.42-1.09-.96-1.14-1.72-.24-2.83,2.36-2.91,4.73-5.82,7.15-8.79-1.91-2.23-3.78-4.43-5.67-6.62-1.04-1.21-2.07-2.43-3.11-3.62-.63-.71-.78-1.43-.45-2.33,1.39-3.78,2.71-7.59,4.08-11.37.68-1.89,1.92-2.13,3.35-.7,11.66,11.6,23.33,23.22,34.99,34.82.25.25.52.5.69.8.42.73.33,1.45-.27,2.04Z"/>
          <path class="cls-2" d="m47.05,72.01c-.46.42-.64.79-.51,1.45,1,5.06,1.94,10.13,2.9,15.19.37,1.91-.23,2.68-2.15,2.68h-25.58c-2.65,0-3.98-1.33-3.98-3.99,0-11.28,0-22.57,0-33.85v-5.03c-1.57,1.56-3.12,3.11-4.68,4.68-.33.32-.64.67-1.01.94-.72.53-1.46.49-2.14-.1-.63-.56-.71-1.51-.2-2.22.18-.26.43-.48.65-.7L45.87,15.57c.2-.2.39-.41.62-.59,1.08-.81,2.53-.34,2.66,1,.11,1.13-.06,2.32-.29,3.44-.7,3.35-1.47,6.69-2.25,10.03-.17.76-.08,1.31.45,1.92,2.3,2.68,4.55,5.42,6.81,8.13,1.14,1.39,1.05,2.16-.4,3.25-3.59,2.7-7.18,5.39-10.86,8.15.38.25.68.47.99.66,4.3,2.57,8.61,5.16,12.91,7.74,1.88,1.13,1.98,2.11.36,3.62-3.25,3.03-6.52,6.08-9.81,9.09Z"/>
        </g>
      </g>
      <rect class="cls-1" width="105.92" height="105.92"/>
    </g>
  </g>
</svg>