<?xml version="1.0" encoding="UTF-8"?>
<svg id="Capa_2" data-name="Capa 2" xmlns="http://www.w3.org/2000/svg" viewBox="0 0 105.92 105.92">
  <defs>
    <style>
      .cls-1 {
        fill: none;
      }

      .cls-1, .cls-2 {
        stroke-width: 0px;
      }

      .cls-2 {
        fill: #ffbc42;
      }
    </style>
  </defs>
  <g id="Capa_1-2" data-name="Capa 1">
    <g>
      <g>
        <path class="cls-2" d="m17.72,37.49c.24.9.83,1.4,1.78,1.32.9-.07,1.39-.63,1.52-1.51.04-.31.02-.64.02-.96,0-4.64,0-9.28,0-13.92v-1.17h9.41c0,1.38-.02,2.65,0,3.92.03,1.16.73,1.92,1.7,1.91.99,0,1.65-.75,1.66-1.93.02-1.7,0-3.4,0-5.1,0-1.67-.53-2.2-2.24-2.21-3.3,0-6.59,0-9.89,0-2.77,0-4.04,1.26-4.04,4.02,0,4.89,0,9.78,0,14.67,0,.32-.01.65.06.95Z"/>
        <path class="cls-2" d="m96.1,55.99c-.61.59-1.33.66-2.05.21-.32-.2-.59-.5-.86-.78-1.65-1.64-3.3-3.28-4.94-4.91-.01,1.49-.01,3.04-.01,4.41.01.21.01.42.01.63v33.84c0,2.75-1.3,4.06-4.02,4.07H21.64c-2.66-.01-3.99-1.33-3.99-4,0-11.31,0-22.62.01-33.93v-5.04c-1.57,1.56-3.13,3.12-4.69,4.69-.33.32-.64.67-1.01.94-.72.53-1.46.49-2.14-.1-.63-.56-.71-1.51-.2-2.22.18-.26.43-.48.65-.7L45.85,17.52c.2-.2.39-.41.62-.59.06-.05.13-.08.2-.11.87-.89,4.44-4.4,6.32-4.36,2.19.05,6.29,4.92,6.29,4.92h-.05c.43.1.89.38,1.38.87,11.69,11.63,23.38,23.27,35.07,34.9.25.25.52.5.69.8.42.73.33,1.45-.27,2.04Z"/>
      </g>
      <rect class="cls-1" width="105.92" height="105.92"/>
    </g>
  </g>
</svg>