<?xml version="1.0" encoding="UTF-8"?>
<svg id="Capa_2" data-name="Capa 2" xmlns="http://www.w3.org/2000/svg" viewBox="0 0 38.77 39">
  <defs>
    <style>
      .cls-1 {
        fill: #ffbc42;
      }
    </style>
  </defs>
  <g id="Capa_1-2" data-name="Capa 1">
    <path class="cls-1" d="m38.77,27.77c-3.64-4.04-8.51-6.93-14.02-8.09,5.47-1.15,10.32-4.02,13.95-8.01-5.4-.26-10.87,1.15-15.56,4.22,3.14-4.79,4.54-10.38,4.19-15.89-4.67,3.64-8.04,8.87-9.29,14.88-1.11-5.36-3.91-10.1-7.82-13.65-.25,5.27,1.12,10.6,4.12,15.18-4.17-2.73-8.97-4.12-13.77-4.15,3.54,3.68,8.18,6.33,13.38,7.42-5.47,1.15-10.32,4.02-13.95,8.01,5.4.26,10.87-1.15,15.56-4.22-2.87,4.38-4.29,9.43-4.26,14.47,3.35-3.41,5.73-7.75,6.74-12.6,1.11,5.36,3.91,10.1,7.82,13.66.26-5.27-1.12-10.61-4.12-15.19,5.12,3.35,11.17,4.67,17.03,3.96Z"/>
  </g>
</svg>