<?xml version="1.0" encoding="UTF-8"?>
<svg id="Capa_2" data-name="Capa 2" xmlns="http://www.w3.org/2000/svg" viewBox="0 0 38 37.93">
  <defs>
    <style>
      .cls-1 {
        fill: #333;
      }
    </style>
  </defs>
  <g id="Capa_1-2" data-name="Capa 1">
    <path class="cls-1" d="m34.76,18.8c-.08-.08-.16-.16-.25-.24,1.7-2.04,2.54-4.56,2.51-7.08-1.75-1.79-4.12-2.97-6.75-3.22,0-.09,0-.18,0-.27,0-2.76-1-5.3-2.67-7.25-2.97-.42-6.08.39-8.51,2.41C16.91,1.02,14.06-.03,11.22,0c-2.07,2.03-3.35,4.86-3.35,7.99,0,.07,0,.15,0,.21h-.07c-3,0-5.71,1.21-7.69,3.16.04,2.74,1.07,5.47,3.12,7.59l-.03.03C1.04,21.15-.03,23.99,0,26.82c1.98,2.02,4.75,3.27,7.8,3.27h.07c.04,2.94,1.2,5.6,3.09,7.57,2.79,0,5.58-1.07,7.72-3.21l.03-.03c.06.07.14.15.21.21,2.21,2.21,5.12,3.31,8.03,3.28,2.05-2.01,3.32-4.8,3.35-7.89,3.15-.3,5.92-1.94,7.72-4.35-.23-2.52-1.31-4.97-3.24-6.89Zm-16.25,2.6c-.43,2.08-1.45,3.94-2.89,5.41-.01-2.16.6-4.33,1.83-6.21-2.01,1.32-4.36,1.92-6.68,1.81,1.56-1.71,3.64-2.94,5.99-3.44-2.23-.47-4.22-1.61-5.74-3.18,2.06.01,4.12.61,5.91,1.78-1.29-1.97-1.88-4.25-1.77-6.51,1.68,1.52,2.88,3.56,3.36,5.86.54-2.58,1.98-4.82,3.99-6.39.15,2.36-.45,4.76-1.8,6.82,2.01-1.32,4.36-1.92,6.68-1.81-1.56,1.71-3.64,2.94-5.99,3.44,2.36.5,4.45,1.74,6.02,3.47-2.52.3-5.11-.26-7.31-1.7,1.29,1.97,1.88,4.26,1.77,6.52-1.68-1.53-2.88-3.56-3.36-5.86Z"/>
  </g>
</svg>