<?xml version="1.0" encoding="UTF-8"?>
<svg id="Capa_2" data-name="Capa 2" xmlns="http://www.w3.org/2000/svg" viewBox="0 0 248 248">
  <defs>
    <style>
      .cls-1 {
        fill: none;
      }

      .cls-1, .cls-2 {
        stroke-width: 0px;
      }

      .cls-2 {
        fill: #333;
      }
    </style>
  </defs>
  <g id="Capa_1-2" data-name="Capa 1">
    <g>
      <g>
        <path class="cls-2" d="m122.69,191.49c-19.24,0-38.48.05-57.72-.02-17.91-.07-32.59-11.59-36.72-28.64-4.39-18.15,5.51-36.77,23.08-43.31,1.28-.48,1.78-1.18,2.06-2.5,5.53-25.57,24.42-44.13,50.22-48.7,5.19-.92,9.12-2.43,12.95-6.35,6.59-6.76,15.49-9.67,24.74-10.77,29.57-3.49,56,17.54,59.55,47.2.27,2.28-.36,5,.69,6.77,1.04,1.77,3.72,2.53,5.59,3.87,15.07,10.81,22.08,29.91,17.6,47.84-4.52,18.06-19.6,31.69-37.85,34.12-2.62.35-5.3.46-7.95.47-18.75.04-37.5.02-56.25.02Zm.28-8.25c18.88,0,37.77.06,56.65-.01,24.64-.09,42.17-21.37,37.28-45.13-4.28-20.83-25.85-33.83-46.23-27.87-4.21,1.23-5.67.7-7.21-2.62-10.62-23.05-33.69-35.31-58.74-31.22-21.72,3.55-40.22,22.11-43.45,43.89-.55,3.73-2.08,5.48-5.7,6.58-15.32,4.67-23.66,21.39-18.53,36.58,4.1,12.13,15.03,19.77,28.44,19.79,19.16.03,38.32,0,57.49,0Zm69.6-81.45c1.28-15.88-13.47-34.89-31.55-40.69-12.96-4.15-33.82-.49-38.1,6.65,20.56,3.55,36.14,14.18,46.2,32.61.65,1.2,1.36,1.18,2.51,1.09,4.3-.37,8.61-.78,12.91-.77,2.68,0,5.35.72,8.03,1.11Z"/>
        <g>
          <path class="cls-2" d="m124.93,144c8.93.29,15.49,3.51,19.28,11.13.67,1.34.98,3.46.37,4.67-.65,1.3-2.56,2.65-3.96,2.69-1.39.04-3.63-1.22-4.1-2.45-2.78-7.25-12.87-8.21-17.97-5.27-1.77,1.02-3.32,2.74-4.44,4.48-1.8,2.79-4.05,3.89-6.58,2.57-2.45-1.28-3.16-3.94-1.65-6.85,4.14-7.99,11.12-10.95,19.05-10.99Z"/>
          <path class="cls-2" d="m94.09,143.37c-6.97.04-12.75-5.53-12.77-12.3,0-2.83,1.61-4.74,4.19-4.94,2.59-.2,4.61,1.4,4.93,4.17.26,2.2,1.2,3.78,3.47,3.81,2.39.03,3.36-1.55,3.62-3.89.31-2.81,2.62-4.43,5.28-4.05,2.49.36,4.08,2.48,3.92,5.22-.4,6.72-5.91,11.94-12.64,11.98Z"/>
          <path class="cls-2" d="m157.15,143.21c-6.55,0-12.2-5.2-12.73-11.71-.22-2.72,1.34-4.91,3.8-5.32,2.68-.45,4.91,1.06,5.37,3.93.36,2.25,1.16,3.89,3.68,3.83,2.38-.06,3.13-1.73,3.47-3.82.45-2.77,2.48-4.28,5.09-3.97,2.45.29,4.03,2.19,4.02,4.86-.02,6.51-5.94,12.21-12.7,12.21Z"/>
        </g>
      </g>
      <rect class="cls-1" width="248" height="248"/>
    </g>
  </g>
</svg>