<?xml version="1.0" encoding="UTF-8"?>
<svg id="Capa_2" data-name="Capa 2" xmlns="http://www.w3.org/2000/svg" viewBox="0 0 248 248">
  <defs>
    <style>
      .cls-1 {
        fill: none;
      }

      .cls-1, .cls-2, .cls-3 {
        stroke-width: 0px;
      }

      .cls-2 {
        fill: #333;
      }

      .cls-3 {
        fill: #ffbc42;
      }
    </style>
  </defs>
  <g id="Capa_1-2" data-name="Capa 1">
    <g>
      <g id="blu8u5.tif">
        <g>
          <path class="cls-3" d="m202.57,124.04c-.04,43.4-35.27,78.53-78.63,78.41-43.41-.13-78.5-35.43-78.28-78.75.22-43.35,35.35-78.27,78.63-78.15,43.33.12,78.32,35.2,78.28,78.49Z"/>
          <path class="cls-3" d="m191.09,186.19c1.65.93,2.95,1.36,3.84,2.22,4.19,4.04,8.3,8.16,12.37,12.32,2.1,2.15,2.12,4.76.25,6.68-1.86,1.9-4.59,1.97-6.68-.07-4.23-4.11-8.37-8.32-12.54-12.51-1.51-1.51-2.04-3.46-.98-5.23.8-1.33,2.37-2.21,3.73-3.41Z"/>
          <path class="cls-3" d="m209.52,43.55c-.99,1.65-1.48,2.93-2.36,3.83-3.99,4.12-8.06,8.17-12.16,12.18-2.18,2.13-4.99,2.13-6.86.16-1.77-1.86-1.7-4.62.34-6.69,4.08-4.15,8.2-8.26,12.34-12.35,1.48-1.47,3.39-2.22,5.19-1.03,1.38.91,2.3,2.5,3.51,3.9Z"/>
          <path class="cls-3" d="m43.4,209.27c-1.17-.93-2.97-1.68-3.48-2.95-.55-1.37-.55-3.81.32-4.78,4.35-4.8,8.99-9.34,13.69-13.81,1.65-1.57,4.3-1.15,5.9.43,1.7,1.68,2.03,4.31.34,6.09-4.42,4.63-8.99,9.11-13.59,13.57-.66.64-1.76.82-3.18,1.44Z"/>
          <path class="cls-3" d="m61.66,56.83c-1.03,1.26-1.83,3.1-3.17,3.64-1.34.55-3.77.43-4.75-.46-4.67-4.22-9.08-8.74-13.44-13.3-1.75-1.83-1.42-4.6.36-6.28,1.74-1.63,4.31-1.86,6.1-.14,4.49,4.31,8.86,8.74,13.2,13.2.7.72.97,1.86,1.7,3.33Z"/>
          <path class="cls-3" d="m228.36,128.59c-2.91,0-5.82.05-8.72-.02-2.95-.07-4.79-1.9-4.78-4.6,0-2.7,1.85-4.52,4.82-4.55,5.81-.06,11.63-.05,17.44,0,3.01.03,4.86,1.78,4.91,4.47.05,2.8-1.83,4.63-4.95,4.69-2.91.06-5.81.01-8.72,0Z"/>
          <path class="cls-3" d="m19.53,128.59c-2.91,0-5.82.05-8.73-.02-2.89-.07-4.86-2-4.84-4.61.02-2.6,1.99-4.52,4.89-4.55,5.82-.06,11.64-.05,17.45,0,2.94.02,4.89,1.87,4.95,4.48.06,2.71-1.95,4.59-5,4.7-.17,0-.33,0-.5,0-2.74,0-5.49,0-8.23,0Z"/>
          <path class="cls-3" d="m128.64,19.62c0,2.91.04,5.82-.01,8.72-.06,2.92-1.9,4.83-4.55,4.85-2.68.02-4.57-1.83-4.61-4.78-.07-5.9-.07-11.79,0-17.69.04-2.92,1.98-4.78,4.66-4.73,2.66.05,4.45,1.96,4.5,4.91.05,2.91.01,5.81.01,8.72Z"/>
          <path class="cls-3" d="m128.64,228.61c0,2.74.03,5.48,0,8.22-.04,3.15-1.77,5.12-4.49,5.18-2.75.06-4.65-1.87-4.68-4.97-.06-5.81-.06-11.63,0-17.44.04-2.96,1.91-4.81,4.59-4.8,2.65.01,4.52,1.93,4.57,4.83.06,2.99.01,5.98.01,8.97Z"/>
          <path class="cls-2" d="m103.82,129.34c.07-2.68,1.59-4.57,3.73-4.97,2.22-.42,4.19.38,4.94,2.44,2.4,6.65,10.98,8,16.55,6.02,2.62-.93,4.59-2.57,5.87-5.07,1.52-2.99,3.94-3.97,6.48-2.68,2.47,1.26,3.2,3.92,1.71,6.82-3.85,7.49-10.29,10.78-18.45,10.97-8.51.2-15.43-2.8-19.69-10.57-.59-1.07-.89-2.29-1.14-2.96Z"/>
          <path class="cls-2" d="m92.83,123.59c-6.97.05-12.76-5.51-12.79-12.28-.01-2.84,1.59-4.75,4.17-4.96,2.59-.21,4.63,1.39,4.95,4.15.25,2.19,1.18,3.79,3.45,3.83,2.39.04,3.38-1.52,3.63-3.87.31-2.83,2.59-4.45,5.26-4.07,2.49.35,4.1,2.47,3.94,5.21-.38,6.71-5.9,11.96-12.62,12Z"/>
          <path class="cls-2" d="m155.98,123.42c-6.53.07-12.2-5.06-12.82-11.6-.27-2.82,1.37-5.09,3.93-5.44,2.67-.37,4.81,1.17,5.26,4.09.33,2.18,1.19,3.67,3.54,3.69,2.08.02,3.08-1.29,3.48-3.23.72-3.52,2.67-5.08,5.57-4.5,2.67.53,4.03,2.9,3.54,6.18-.89,6.05-6.33,10.75-12.51,10.82Z"/>
        </g>
      </g>
      <rect class="cls-1" width="248" height="248"/>
    </g>
  </g>
</svg>